<?xml version="1.0" standalone="yes"?>
<svg xmlns="http://www.w3.org/2000/svg" width="377" height="377">
<path style="fill:#000000; stroke:none;" d="M0 0L0 377L377 377L377 0L0 0z"/>
<path style="fill:#004e9e; stroke:none;" d="M149 54L153 54C153 43.2908 153.699 31.8336 160.529 23.0008C172.462 7.56888 196.859 7.42038 207.895 24C214.002 33.1743 215 44.2875 215 55C219.958 53.3545 219.188 48.5063 218.575 44C217.252 34.2754 215.324 24.7112 208.671 17.0401C196.223 2.68506 168.943 4.37149 157.529 19.0038C149.711 29.0267 149 41.8304 149 54M183 19C182.602 24.0452 182.001 28.9177 182 34C176.745 31.386 172.418 27.2792 167 25C168.228 30.1793 171.567 34.0317 175 38L161 38C164.158 42.2046 171.285 42.9101 176 45C171.099 47.3186 166.43 50.0278 164 55L182 50L182 82C157.342 82 125.532 77.7344 108.789 101.001C102.724 109.427 99.7967 120.145 97 130L136 130C141.439 130 148.851 128.718 153.985 130.742C162.748 134.198 156.604 148.24 166.005 149.573C171.467 150.348 174.171 144.362 177.209 141.043C183.493 134.179 193.044 132.549 199.61 140.105C210.459 152.59 202.58 174.163 192.811 184.961C188.236 190.017 179.552 193.771 178.228 201.001C177.183 206.709 178 213.207 178 219L178 254L178 364L209 364L209 304C209 296.78 207.084 286.285 211.854 280.214C214.914 276.32 219.423 276.025 224 276.001C231.632 275.961 239.429 275.546 247 276.576C274.202 280.279 296.545 293.025 309.68 318C313.888 326.001 315.144 334.58 318 343C320.497 337.049 319 328.42 319 322L319 275C319 268.315 320.245 258.157 316.972 252.09C315.286 248.964 311.743 246.766 309 244.651C302.937 239.975 296.819 234.481 290 231C302.308 229.648 314.988 234.411 327 236C326.824 234.122 326.562 232.801 326 231C313.942 233.231 301.103 228.955 289 228C296.882 220.118 304.629 212.203 312.17 204.005C315.556 200.323 320.15 198.155 321 193C315.444 192.397 310.925 189.222 306 186.753C294.327 180.901 282.58 172.624 270 169C276.771 165.15 284.635 162.574 292 160.043C296.41 158.528 300.116 159.286 301 154C288.3 149.08 281.795 134.489 270.545 127.693C268.184 126.267 265.532 127.677 263 127.702C259.055 127.741 254.868 126.721 251 126C253.359 118.018 252.579 108.322 253.043 100C253.271 95.9061 254.789 92.1121 255 88C247.234 89.1075 237.283 92.8664 230 96L229 95C229.806 92.6237 233.787 83.8337 231.918 81.8318C230.175 79.9648 223.428 81.9838 221 81.9992C209.334 82.0735 197.666 82 186 82L186 49C191.347 51.367 197.212 53.1484 203 54C200.542 49.9487 196.272 47.8433 192 46C196.655 43.1095 203.863 42.5835 207 38L193 38C195.425 33.649 198.74 29.8577 200 25C194.743 27.0331 190.746 31.0342 186 34C185.959 29.0753 186.045 22.999 183 19z"/>
<path style="fill:#000000; stroke:none;" d="M162 84C163.07 91.1362 166.642 100.241 171 106C175.092 98.9888 178.88 91.4948 182 84L162 84M192 84C199.153 88.5012 208.972 90.3631 217 92.9992C219.623 93.8607 223.818 95.8314 226.411 93.9576C229.063 92.0411 228.875 86.8957 229 84L192 84M184 85C179.841 92.1255 175.288 100.059 173 108C184.687 107.968 196.295 106 208 106C201.332 98.292 192.5 90.6223 184 85M190 86C193.727 91.2466 199.033 95.4811 204 99.5571C206.294 101.44 208.86 103.656 212 103.639C216.507 103.615 220.975 99.7345 225 98C215.301 91.8965 200.946 89.5615 190 86M230 98C234.799 107.637 242.725 116.239 249 125C250.466 121.507 249.833 117.743 250.09 114C250.572 106.947 252.502 98.9321 251 92C244.02 93.966 236.782 95.4414 230 98M213 106C216.163 110.297 220.25 113.575 225 116C226.541 110.785 225.734 105.317 227 100C221.849 100.93 217.75 103.953 213 106M228 101C228 105.317 226.345 112.924 228.198 116.786C230.539 121.667 241.165 123.854 246 125C242.568 116.881 234.998 106.368 228 101M174 110C175.167 112.25 176.382 114.114 178.108 116.004C180.126 118.214 182.855 121.608 186 122.118C188.671 122.551 191.031 120.466 193 118.985C197.366 115.699 201.61 112.254 206 109C201.524 107.122 196.688 108.384 192 108.83C186.085 109.393 179.935 109.745 174 110M212 109L212 141C215.793 136.634 218.532 131.092 221.265 126C222.343 123.993 223.908 121.558 223.264 119.171C222.113 114.904 215.453 111.284 212 109M207 110C201.267 114.961 195.157 119.574 189 124L189 126C192.647 127.938 195.952 130.071 200 131C202.373 124.882 207.548 116.587 207 110M209 112C207.238 118.444 201.613 126.219 202.368 133C202.954 138.259 207.053 142.686 208 148C211.74 140.965 210 130.763 210 123C210 119.298 210.441 115.435 209 112M214 143C221.004 140.998 227.35 137.326 234 134.424C238.306 132.546 243.355 131.037 246 127C240.832 125.589 233.546 120.73 228.185 121.503C225.36 121.91 224.008 124.801 222.72 127.005C219.667 132.225 216.393 137.446 214 143M247 148C253.663 143.306 261.239 136.62 266 130C262.126 129.694 256.946 127.938 253.228 129.603C248.332 131.797 247.909 143.312 247 148M215 145C220.995 148.188 229.322 148.333 236 149.271C238.575 149.633 242.032 150.615 244.062 148.396C247.706 144.415 247.678 135.109 249 130C237.278 133.377 226.306 140.362 215 145M267 132C260.763 138.237 253.083 143.804 248 151C253.475 153.054 259.162 153.952 265 154C265.309 146.813 268.111 139.128 267 132M270 132C268.569 136.797 268.26 142.026 267.58 147C267.307 149 266.666 151.631 268.032 153.397C269.557 155.369 272.813 154.984 275 154.999C281.666 155.045 288.334 155 295 155C288.928 146.382 278.932 137.587 270 132z"/>
<path style="fill:#004e9e; stroke:none;" d="M87 206C84.6381 210.909 84.4515 216.881 87.1489 221.83C88.5293 224.363 90.7753 226.139 91.5671 229.015C93.5189 236.102 91.4263 243.443 100.004 246.852C104.993 248.835 111.684 248.973 117 248.999C119.894 249.013 124.033 248.31 126.57 250.028C130.022 252.365 132.137 262.236 130.109 265.814C128.801 268.12 126.113 269.548 124 271C130.637 288.256 155.275 302.345 173 305L173 232C173 222.141 170.528 208.373 173.703 199C176.614 190.406 186.854 186.188 191.957 178.999C198.122 170.313 206.064 151.635 196.606 142.419C183.175 129.332 177.164 158.453 164.015 153.812C159.151 152.095 157.605 147.634 156.757 143C156.355 140.804 156.333 137.53 154.4 136.028C151.419 133.71 144.562 135 141 135C130.966 135 121.056 134 111 134C107.583 134 102.468 133.076 99.314 134.603C96.9506 135.748 96.669 138.705 96.2508 141.001C95.3783 145.789 94.7388 150.536 92.6759 155C87.82 165.508 79.8485 175.098 75.9691 186C74.2103 190.943 74.3359 197.768 78.3441 201.582C80.6957 203.819 84.0372 204.848 87 206z"/>
<path style="fill:#000000; stroke:none;" d="M104 148C109.721 149.003 116.67 145.574 123 146.093C130.082 146.674 135.675 151.275 142 154C131.753 143.424 116.906 141.2 104 148M212 148C212.759 151.081 212.686 158.023 215.589 159.879C217.703 161.231 220.932 159.687 223 158.946C228.644 156.922 234.213 154.58 240 153C232.915 148.749 220.188 148.068 212 148M210 151L208 164C213.81 161.756 212.513 155.719 210 151M247 153C245.13 159.325 245.055 167.372 245 174C251.283 169.574 258.726 163.02 262 156C256.928 155.586 251.922 154.274 247 153M101 164C107.286 165.366 116.623 165.843 123 164.482C127.597 163.501 131.532 160.9 136 159.637C139.817 158.559 144.073 159 148 159C144.877 157.687 141.337 157.843 138 157.115C124.975 154.275 109.297 150.303 101 164M143 154C144.248 154.685 144.549 154.749 146 155C144.752 154.315 144.452 154.251 143 154M218 163C224.636 168.499 234.867 172.231 243 175L244 154C235.268 155.29 225.978 159.269 218 163z"/>
<path style="fill:#004e9e; stroke:none;" d="M105 163C108.352 163.144 111.65 163.882 115 163.946C117.024 163.985 119.012 163.743 121 163.384C122.815 163.057 133.566 160.656 129.338 157.012C127.572 155.491 124.137 156.001 122 156C115.855 155.997 107.155 156.155 105 163z"/>
<path style="fill:#000000; stroke:none;" d="M249 174C263.112 168.527 277.225 161.501 292 158C288.565 156.559 284.702 157 281 157C277.113 157 272.797 156.501 269 157.475C261.199 159.474 253.467 167.66 249 174M202 179L210 181C211.564 175.852 212.001 170.304 213 165C206.419 166.8 203.783 172.812 202 179M215 165C213.747 170.203 212.505 175.797 214 181C222.515 179.396 231.338 177.372 240 177C233.909 171.5 222.87 167.267 215 165M248 176C254 179.665 262.216 180.276 269 181.884C281.912 184.945 294.822 189.298 308 191C300.231 184.562 289.041 180.273 280 175.753C276.029 173.768 271.53 170.626 267 170.306C260.76 169.866 253.94 174.379 248 176M214 183C218.021 187.987 223.741 194.243 230 196L242 178C232.704 179.752 223.186 180.737 214 183M249 179C254.056 184.32 262.02 191.777 269 194.272C272.957 195.687 277.865 195 282 195C290.769 195 299.283 194.688 308 194C301.04 190.272 291.69 189.284 284 187.576C272.277 184.972 260.761 181.427 249 179M243 180C239.35 185.096 235.233 190.108 233 196C240.898 194.173 249.274 192.932 245.242 183.138C244.679 181.769 243.96 181.089 243 180M201 181C203.155 191.411 207.454 201.492 209 212C211.494 206.057 210.013 197.412 210 191C209.995 188.765 210.446 185.624 208.972 183.728C207.253 181.516 203.533 181.343 201 181M247 181C249.28 190.816 254.565 192.782 264 194C259.18 189.081 253.137 184.133 247 181M212 185L212 218C216.371 214.442 219.613 209.509 222.984 205C224.478 203.002 226.483 200.687 225.694 198C224.146 192.735 216.3 187.941 212 185M309 191L310 192L309 191M231 199C234.59 204.117 238.915 209.343 244 213C246.042 206.969 247.184 200.316 248 194C242.151 194.864 236.608 197.175 231 199M247 213C253.65 208.453 259.563 202.851 266 198C264.334 196.688 263.081 196.124 260.981 195.59C258.399 194.933 254.855 193.605 252.228 194.643C247.413 196.546 247.19 208.581 247 213M272 197C273.861 207.44 281.846 216.36 286 226C293.813 222.357 299.484 214.284 305.17 208C308.81 203.977 312.869 200.445 316 196L272 197M247 215C250.976 217.962 256.27 218.8 261 220.14C268.695 222.321 276.382 224.564 284 227C281.831 219.625 277.066 212.69 273.305 206.004C272.113 203.885 270.747 200.488 267.895 200.306C265.306 200.141 262.872 202.538 261 204.005C256.322 207.673 251.962 211.718 247 215M228 201C223.411 207.384 218.157 213.324 214 220C223.405 219.258 232.607 216.742 242 216C239.29 210.18 233.848 203.75 228 201z"/>
<path style="fill:#592c82; stroke:none;" d="M111 273C111.792 280.288 117.161 286.798 122.09 291.985C134.405 304.944 154.935 316.524 173 318L173 308C158.77 304.708 145.255 297.817 134 288.536C130.596 285.73 127.544 282.555 124.927 279.001C123.424 276.958 122.099 273.669 119.61 272.643C117.148 271.628 113.573 272.797 111 273z"/>
<path style="fill:#b31c83; stroke:none;" d="M99 276C100.677 285.41 107.462 293.39 114.004 300C129.069 315.223 151.198 328.219 173 330L173 320C154.073 316.083 135.699 306.691 122.004 292.996C116.572 287.564 111.349 281.42 109 274C105.608 274.438 102.312 275.143 99 276z"/>
<path style="fill:#f8af43; stroke:none;" d="M86 278C87.7275 289.525 96.0392 299.942 104.004 308C122.33 326.54 146.962 339.638 173 343C173 340.319 173.758 335.988 171.972 333.738C170.446 331.816 167.201 331.663 165 331.105C159.574 329.728 154.154 327.896 149 325.716C132.809 318.869 117.819 308.667 106.616 295C103.778 291.538 101.333 287.967 99.2585 284.001C98.1216 281.827 97.0693 278.663 94.6096 277.643C92.1533 276.624 88.568 277.798 86 278z"/>
<path style="fill:#004e9e; stroke:none;" d="M246 284C239.695 285.864 232.542 284.987 226 285C223.054 285.006 218.919 284.484 217.028 287.318C214.421 291.225 216 299.463 216 304C224.409 301.566 231.865 298.072 239 292.96C242.118 290.726 246.086 288.049 246 284z"/>
<path style="fill:#592c82; stroke:none;" d="M216 318C233.792 314.318 253.471 303.707 262 287C258.97 286.375 255.113 284.749 252.039 285.694C249.1 286.597 247.094 289.581 244.91 291.573C240.669 295.441 236.044 298.934 231 301.688C227.217 303.753 219.528 304.951 217.028 308.51C215.299 310.972 216 315.155 216 318z"/>
<path style="fill:#b31c83; stroke:none;" d="M263 288C253.83 303.863 234.127 316.557 216 319L216 330C232.275 325.779 246.03 320.357 258.985 309.246C264.669 304.372 270.688 298.241 273 291C269.669 289.717 266.54 288.53 263 288z"/>
<path style="fill:#f8af43; stroke:none;" d="M216 332L216 342C235.148 341.165 253.756 330.486 267.999 318.41C274.608 312.806 281.854 305.18 285 297C282.769 295.706 279.841 293.537 277.09 293.994C274.113 294.489 272.294 297.885 270.536 300.001C267.318 303.874 263.692 307.488 260 310.91C248.239 321.808 231.935 329.854 216 332z"/>
</svg>
